<?xml version="1.0" encoding="UTF-8" standalone="no"?>
<!-- Created with Inkscape (http://www.inkscape.org/) -->

<svg
   viewBox="0 0 263.90503 212.95685"
   version="1.1"
   id="svg1"
   xml:space="preserve"
   xmlns:inkscape="http://www.inkscape.org/namespaces/inkscape"
   xmlns:sodipodi="http://sodipodi.sourceforge.net/DTD/sodipodi-0.dtd"
   xmlns="http://www.w3.org/2000/svg"
   xmlns:svg="http://www.w3.org/2000/svg"><sodipodi:namedview
     id="namedview1"
     pagecolor="#505050"
     bordercolor="#ffffff"
     borderopacity="1"
     inkscape:showpageshadow="0"
     inkscape:pageopacity="0"
     inkscape:pagecheckerboard="1"
     inkscape:deskcolor="#505050"
     inkscape:document-units="px" /><defs
     id="defs1" /><g
     inkscape:label="Capa 1"
     inkscape:groupmode="layer"
     id="layer1"
     transform="translate(-1132.9011,-612.08142)"><path
       style="fill:#ffffff"
       d="m 1158.1653,823.41291 c -0.9867,-0.98669 -1.5059,-2.85329 -1.3214,-4.75 0.2546,-2.61693 1.0591,-3.48551 4.9518,-5.34618 6.416,-3.06682 10.8842,-8.69112 18.0128,-22.67348 6.0718,-11.90945 6.0969,-11.99399 5.535,-18.69543 -1.3519,-16.12603 -8.649,-21.41041 -31.1956,-22.5911 -11,-0.57604 -11,-0.57604 -16.3508,-6.02999 -4.0713,-4.14987 -5.2239,-5.97215 -4.8202,-7.62117 4.0141,-16.39988 6.7511,-21.69948 13.2954,-25.74408 2.2843,-1.41182 3.3522,-2.98585 3.8587,-5.68759 0.3851,-2.05455 1.3586,-5.31055 2.1633,-7.23555 l 1.463,-3.5 4.1953,4.82976 c 3.8313,4.41072 4.8894,5.00413 12.1953,6.83944 5.107,1.28293 12.882,2.19447 21.5,2.52068 11.7477,0.44467 16.1609,0.10492 34,-2.61745 11.275,-1.72065 25.9,-4.10943 32.5,-5.30841 10.3851,-1.88659 15.7008,-2.18562 39.5,-2.22199 15.125,-0.0231 30.129,0.30428 33.3423,0.72755 5.8422,0.76958 5.8422,0.76958 19.1448,-12.5 18.5298,-18.48383 26.5129,-31.56036 26.5129,-43.42887 0,-5.98086 -3.068,-12.39242 -7.5746,-15.82982 -3.4739,-2.6497 -3.4739,-2.6497 -9.4537,-0.58029 -12.9966,4.49775 -18.4853,1.07725 -11.836,-7.37604 3.4642,-4.40392 8.9528,-6.55994 16.5745,-6.51067 12.0495,0.0779 19.3234,4.2375 23.9513,13.69671 2.5108,5.13181 2.8092,6.78933 2.7476,15.25831 -0.1309,17.97072 -6.5159,36.12429 -18.1143,51.50109 -11.6571,15.4547 -13.1217,20.9363 -9.2882,34.76266 1.1037,3.98054 2.7179,12.63734 3.5871,19.23734 1.5804,12 1.5804,12 10.8083,26 9.0863,13.78511 9.308,14.26739 14.4464,31.42034 4.0297,13.45226 4.928,17.5998 3.9436,18.2082 -2.1743,1.3438 -12.045,2.20166 -13.6541,1.18668 -2.4333,-1.53493 -2.3556,-2.7883 0.3544,-5.71238 2.5432,-2.74421 2.5432,-2.74421 0.6124,-5.42353 -5.4522,-7.56594 -12.2329,-11.09559 -36.1047,-18.79415 -1.1772,-0.37963 -2.2233,2.30854 -4.8606,12.48999 -3.3606,12.97374 -3.3606,12.97374 -8,14.94057 -7.09,3.00572 -10.6121,3.52453 -12.0626,1.77678 -1.8699,-2.25307 -0.9184,-4.83424 2.6096,-7.07912 2.7364,-1.74115 3.3281,-2.90877 4.3762,-8.63563 1.212,-6.62225 1.212,-6.62225 -3.9607,-16.18935 -5.1379,-9.50257 -5.208,-9.57728 -10.3874,-11.07706 -7.5677,-2.19135 -28.8606,-6.35608 -38.6883,-7.56713 -12.5938,-1.55192 -35.5579,-1.37286 -37.2048,0.29011 -0.7268,0.73388 -3.5575,11.74948 -6.2906,24.47913 -4.9692,23.14481 -4.9692,23.14481 -8.7702,24.66568 -4.8486,1.94002 -11.1491,1.96264 -12.74,0.0457 -1.0031,-1.20874 -0.6641,-2.03527 1.8776,-4.57693 1.7251,-1.7251 3.1018,-4.15434 3.1018,-5.47325 0,-3.16802 -4.5728,-17.50819 -6.3643,-19.95817 -1.3655,-1.86747 -1.6832,-1.72086 -7.7797,3.59026 -3.4958,3.04548 -10.856,9.08471 -16.356,13.4205 -5.5,4.33579 -10.5832,8.68407 -11.2961,9.66285 -1.9446,2.67001 -9.5256,6.80986 -12.4703,6.80986 -1.4249,0 -3.3222,-0.73144 -4.2162,-1.62543 z"
       id="path2" /></g></svg>
